<svg width="10" height="10" viewBox="0 0 10 10" fill="none" xmlns="http://www.w3.org/2000/svg">
<path d="M9.83945 4.15757L8.0024 5.94827C7.94081 6.00804 7.89471 6.08191 7.86808 6.1635C7.84144 6.24508 7.83508 6.33193 7.84955 6.41652L8.28252 8.94454C8.29924 9.04192 8.28835 9.14203 8.2511 9.23355C8.21385 9.32506 8.15172 9.40432 8.07174 9.46234C7.99176 9.52036 7.89714 9.55482 7.79858 9.56184C7.70003 9.56885 7.60148 9.54813 7.51409 9.50201L5.24476 8.30752C5.16886 8.26748 5.08434 8.24655 4.99853 8.24655C4.91271 8.24655 4.8282 8.26748 4.7523 8.30752L2.48158 9.49994C2.39416 9.54592 2.29561 9.56651 2.1971 9.55939C2.09858 9.55226 2.00402 9.5177 1.92413 9.45961C1.84423 9.40153 1.78219 9.32224 1.74503 9.23072C1.70787 9.1392 1.69706 9.03911 1.71384 8.94177L2.1482 6.41376C2.16222 6.32965 2.15571 6.2434 2.12922 6.16235C2.10272 6.0813 2.05703 6.00786 1.99604 5.94827L0.160376 4.1548C0.0895023 4.08583 0.0393463 3.9984 0.0155835 3.90241C-0.00817922 3.80641 -0.00460008 3.70568 0.025916 3.61161C0.056432 3.51755 0.112667 3.4339 0.188257 3.37013C0.263847 3.30637 0.355775 3.26503 0.453639 3.2508L2.99203 2.88284C3.07661 2.87051 3.15694 2.83782 3.2261 2.78758C3.29525 2.73734 3.35117 2.67105 3.38904 2.59442L4.52613 0.294653C4.56993 0.206149 4.63761 0.13165 4.72151 0.0795643C4.80541 0.0274783 4.9022 -0.00012207 5.00095 -0.00012207C5.0997 -0.00012207 5.19649 0.0274783 5.28039 0.0795643C5.36429 0.13165 5.43196 0.206149 5.47577 0.294653L6.61009 2.59442C6.64797 2.67145 6.70404 2.73809 6.77345 2.78859C6.84287 2.83908 6.92354 2.87191 7.00849 2.88422L9.5448 3.25495C9.64264 3.26892 9.73461 3.31001 9.8103 3.37357C9.88598 3.43713 9.94235 3.52061 9.97302 3.61456C10.0037 3.70852 10.0074 3.80918 9.98383 3.90515C9.96022 4.00112 9.9102 4.08856 9.83945 4.15757Z" fill="#FFD700"/>
</svg>
